<svg xmlns="http://www.w3.org/2000/svg" xmlns:xlink="http://www.w3.org/1999/xlink" width="500" zoomAndPan="magnify" viewBox="0 0 375 374.999991" height="500" preserveAspectRatio="xMidYMid meet" version="1.0"><defs><clipPath id="96aab34628"><path d="M 112.5 125.25 L 257 125.25 L 257 224 L 112.5 224 Z M 112.5 125.25 " clip-rule="nonzero"/></clipPath><clipPath id="6b6d61e66b"><path d="M 195 163 L 262.5 163 L 262.5 249.75 L 195 249.75 Z M 195 163 " clip-rule="nonzero"/></clipPath></defs><g clip-path="url(#96aab34628)"><path fill="#000000" d="M 129.558594 125.695312 C 120.238281 125.695312 112.496094 132.996094 112.496094 142.121094 L 112.496094 207.355469 C 112.496094 216.480469 120.238281 223.789062 129.558594 223.789062 L 198.398438 223.789062 L 195.394531 217.242188 L 129.558594 217.242188 C 123.585938 217.242188 119.03125 212.808594 119.03125 207.355469 L 119.03125 142.121094 C 119.03125 136.675781 123.585938 132.226562 129.558594 132.226562 L 239.761719 132.226562 C 245.71875 132.226562 250.265625 136.675781 250.265625 142.121094 L 250.265625 187.972656 L 253.605469 189.957031 L 256.816406 187.972656 L 256.816406 142.121094 C 256.816406 132.996094 249.070312 125.695312 239.761719 125.695312 Z M 129.558594 125.695312 " fill-opacity="1" fill-rule="evenodd"/></g><path fill="#000000" d="M 206.722656 145.136719 C 201.84375 145.136719 197.816406 149.15625 197.816406 154.035156 L 197.816406 178.320312 C 197.816406 183.195312 201.84375 187.214844 206.722656 187.214844 L 212.832031 187.214844 L 212.832031 181.015625 L 206.722656 181.015625 C 205.171875 181.015625 204.019531 179.859375 204.019531 178.324219 L 204.019531 154.035156 C 204.019531 152.496094 205.171875 151.363281 206.722656 151.363281 L 233.945312 151.363281 C 235.492188 151.363281 236.640625 152.496094 236.640625 154.035156 L 236.640625 178.324219 C 236.640625 179.859375 235.492188 181.015625 233.945312 181.015625 L 227.832031 181.015625 L 227.832031 187.214844 L 233.945312 187.214844 C 238.820312 187.214844 242.847656 183.199219 242.847656 178.320312 L 242.847656 154.035156 C 242.847656 149.15625 238.820312 145.136719 233.945312 145.136719 Z M 206.722656 145.136719 " fill-opacity="1" fill-rule="evenodd"/><g clip-path="url(#6b6d61e66b)"><path fill="#000000" d="M 220.34375 163.652344 C 221.203125 163.652344 222.070312 163.851562 222.828125 164.234375 C 224.335938 165.011719 225.148438 166.347656 225.148438 167.714844 L 225.148438 202.8125 C 225.148438 205.199219 227.570312 205.179688 227.839844 202.8125 L 228.632812 196 C 228.800781 194.574219 229.492188 193.105469 231.007812 192.324219 C 232.515625 191.554688 234.550781 191.414062 235.988281 192.324219 C 237.433594 193.253906 238.203125 194.523438 238.324219 195.988281 L 238.730469 201.324219 C 238.917969 203.761719 241.039062 203.738281 241.402344 201.324219 L 241.835938 198.40625 C 242.089844 196.71875 242.960938 195.535156 244.175781 194.90625 C 245.683594 194.117188 247.636719 194.125 249.15625 194.90625 C 250.664062 195.675781 251.269531 197.03125 251.472656 198.355469 L 252.082031 202.171875 C 252.453125 204.53125 254.417969 204.832031 254.730469 202.464844 L 254.996094 200.449219 C 255.15625 199.222656 255.449219 198.375 256.257812 197.886719 C 257.503906 197.148438 259.265625 197.25 260.558594 197.886719 C 261.855469 198.535156 262.511719 199.605469 262.511719 200.679688 L 262.511719 218.695312 C 262.480469 228.707031 260.144531 236.414062 255.671875 241.566406 C 251.1875 246.707031 244.488281 249.488281 236.046875 249.46875 C 227.609375 249.449219 222.414062 247.878906 218.429688 245.054688 C 214.445312 242.226562 211.589844 238.054688 209.261719 232.703125 L 195.640625 205.425781 C 193.03125 200.207031 204.078125 199.820312 207.582031 205.011719 C 209.785156 208.28125 212.296875 213.71875 212.296875 213.71875 C 213.269531 215.164062 215.527344 214.464844 215.515625 212.714844 L 215.515625 167.714844 C 215.515625 166.347656 216.335938 165.011719 217.84375 164.234375 C 218.601562 163.851562 219.472656 163.652344 220.34375 163.652344 Z M 220.34375 163.652344 " fill-opacity="1" fill-rule="nonzero"/></g><path fill="#000000" d="M 135.171875 145.136719 L 183.886719 145.136719 C 186.40625 145.136719 188.441406 147.171875 188.441406 149.691406 L 188.441406 154.203125 C 188.441406 156.722656 186.40625 158.746094 183.886719 158.746094 L 135.171875 158.746094 C 132.652344 158.746094 130.617188 156.722656 130.617188 154.203125 L 130.617188 149.691406 C 130.621094 147.171875 132.652344 145.136719 135.171875 145.136719 Z M 135.171875 145.136719 " fill-opacity="1" fill-rule="evenodd"/><path fill="#000000" d="M 137.78125 165.757812 C 141.75 165.757812 144.949219 168.957031 144.949219 173.652344 C 144.949219 178.347656 141.75 181.546875 137.78125 181.546875 C 133.816406 181.546875 130.617188 178.347656 130.617188 173.652344 C 130.621094 168.957031 133.816406 165.757812 137.78125 165.757812 Z M 137.78125 165.757812 " fill-opacity="1" fill-rule="evenodd"/><path fill="#000000" d="M 181.277344 165.757812 C 185.246094 165.757812 188.441406 168.957031 188.441406 173.652344 C 188.441406 178.347656 185.246094 181.546875 181.277344 181.546875 C 177.3125 181.546875 174.125 178.347656 174.125 173.652344 C 174.125 168.957031 177.3125 165.757812 181.277344 165.757812 Z M 181.277344 165.757812 " fill-opacity="1" fill-rule="evenodd"/><path fill="#000000" d="M 159.53125 165.757812 C 163.5 165.757812 166.695312 168.957031 166.695312 173.652344 C 166.695312 178.347656 163.5 181.546875 159.53125 181.546875 C 155.566406 181.546875 152.363281 178.347656 152.363281 173.652344 C 152.367188 168.957031 155.566406 165.757812 159.53125 165.757812 Z M 159.53125 165.757812 " fill-opacity="1" fill-rule="evenodd"/><path fill="#000000" d="M 137.78125 188.5625 C 141.75 188.5625 144.949219 191.757812 144.949219 196.445312 C 144.949219 201.140625 141.75 204.339844 137.78125 204.339844 C 133.816406 204.339844 130.617188 201.140625 130.617188 196.445312 C 130.621094 191.757812 133.816406 188.5625 137.78125 188.5625 Z M 137.78125 188.5625 " fill-opacity="1" fill-rule="evenodd"/><path fill="#000000" d="M 181.277344 188.5625 C 185.246094 188.5625 188.441406 191.757812 188.441406 196.445312 C 188.441406 201.140625 185.246094 204.339844 181.277344 204.339844 C 177.3125 204.339844 174.125 201.140625 174.125 196.445312 C 174.125 191.757812 177.3125 188.5625 181.277344 188.5625 Z M 181.277344 188.5625 " fill-opacity="1" fill-rule="evenodd"/><path fill="#000000" d="M 159.53125 188.5625 C 163.5 188.5625 166.695312 191.757812 166.695312 196.445312 C 166.695312 201.140625 163.5 204.339844 159.53125 204.339844 C 155.566406 204.339844 152.363281 201.140625 152.363281 196.445312 C 152.367188 191.757812 155.566406 188.5625 159.53125 188.5625 Z M 159.53125 188.5625 " fill-opacity="1" fill-rule="evenodd"/></svg>