<svg xmlns="http://www.w3.org/2000/svg" xmlns:xlink="http://www.w3.org/1999/xlink" width="500" zoomAndPan="magnify" viewBox="0 0 375 374.999991" height="500" preserveAspectRatio="xMidYMid meet" version="1.0"><defs><clipPath id="5af04ce632"><path d="M 112.5 112.5 L 262.5 112.5 L 262.5 262.5 L 112.5 262.5 Z M 112.5 112.5 " clip-rule="nonzero"/></clipPath></defs><path fill="#ffffff" d="M 255 260 L 120 260 C 117.238281 260 115 257.761719 115 255 L 115 145 L 260 145 L 260 255 C 260 257.761719 257.761719 260 255 260 " fill-opacity="1" fill-rule="nonzero"/><path fill="#000000" d="M 260 147.5 L 115 147.5 L 115 130 C 115 127.238281 117.238281 125 120 125 L 255 125 C 257.761719 125 260 127.238281 260 130 L 260 147.5 " fill-opacity="1" fill-rule="nonzero"/><path fill="#000000" d="M 135 135 C 132.238281 135 130 132.761719 130 130 L 130 120 C 130 117.238281 132.238281 115 135 115 C 137.761719 115 140 117.238281 140 120 L 140 130 C 140 132.761719 137.761719 135 135 135 " fill-opacity="1" fill-rule="nonzero"/><path fill="#000000" d="M 205 135 C 202.238281 135 200 132.761719 200 130 L 200 120 C 200 117.238281 202.238281 115 205 115 C 207.761719 115 210 117.238281 210 120 L 210 130 C 210 132.761719 207.761719 135 205 135 " fill-opacity="1" fill-rule="nonzero"/><path fill="#000000" d="M 170 135 C 167.238281 135 165 132.761719 165 130 L 165 120 C 165 117.238281 167.238281 115 170 115 C 172.761719 115 175 117.238281 175 120 L 175 130 C 175 132.761719 172.761719 135 170 135 " fill-opacity="1" fill-rule="nonzero"/><path fill="#000000" d="M 240 135 C 237.238281 135 235 132.761719 235 130 L 235 120 C 235 117.238281 237.238281 115 240 115 C 242.761719 115 245 117.238281 245 120 L 245 130 C 245 132.761719 242.761719 135 240 135 " fill-opacity="1" fill-rule="nonzero"/><path fill="#000000" d="M 160 167.5 L 165 167.5 L 165 172.5 L 160 172.5 Z M 157.5 177.5 L 167.5 177.5 C 168.878906 177.5 170 176.378906 170 175 L 170 165 C 170 163.621094 168.878906 162.5 167.5 162.5 L 157.5 162.5 C 156.121094 162.5 155 163.621094 155 165 L 155 175 C 155 176.378906 156.121094 177.5 157.5 177.5 " fill-opacity="1" fill-rule="nonzero"/><path fill="#000000" d="M 135 167.5 L 140 167.5 L 140 172.5 L 135 172.5 Z M 132.5 177.5 L 142.5 177.5 C 143.878906 177.5 145 176.378906 145 175 L 145 165 C 145 163.621094 143.878906 162.5 142.5 162.5 L 132.5 162.5 C 131.121094 162.5 130 163.621094 130 165 L 130 175 C 130 176.378906 131.121094 177.5 132.5 177.5 " fill-opacity="1" fill-rule="nonzero"/><path fill="#000000" d="M 185 167.5 L 190 167.5 L 190 172.5 L 185 172.5 Z M 182.5 177.5 L 192.5 177.5 C 193.878906 177.5 195 176.378906 195 175 L 195 165 C 195 163.621094 193.878906 162.5 192.5 162.5 L 182.5 162.5 C 181.121094 162.5 180 163.621094 180 165 L 180 175 C 180 176.378906 181.121094 177.5 182.5 177.5 " fill-opacity="1" fill-rule="nonzero"/><path fill="#000000" d="M 235 167.5 L 240 167.5 L 240 172.5 L 235 172.5 Z M 232.5 177.5 L 242.5 177.5 C 243.878906 177.5 245 176.378906 245 175 L 245 165 C 245 163.621094 243.878906 162.5 242.5 162.5 L 232.5 162.5 C 231.121094 162.5 230 163.621094 230 165 L 230 175 C 230 176.378906 231.121094 177.5 232.5 177.5 " fill-opacity="1" fill-rule="nonzero"/><path fill="#000000" d="M 210 167.5 L 215 167.5 L 215 172.5 L 210 172.5 Z M 207.5 177.5 L 217.5 177.5 C 218.878906 177.5 220 176.378906 220 175 L 220 165 C 220 163.621094 218.878906 162.5 217.5 162.5 L 207.5 162.5 C 206.121094 162.5 205 163.621094 205 165 L 205 175 C 205 176.378906 206.121094 177.5 207.5 177.5 " fill-opacity="1" fill-rule="nonzero"/><path fill="#000000" d="M 160 190 L 165 190 L 165 195 L 160 195 Z M 157.5 200 L 167.5 200 C 168.878906 200 170 198.878906 170 197.5 L 170 187.5 C 170 186.121094 168.878906 185 167.5 185 L 157.5 185 C 156.121094 185 155 186.121094 155 187.5 L 155 197.5 C 155 198.878906 156.121094 200 157.5 200 " fill-opacity="1" fill-rule="nonzero"/><path fill="#000000" d="M 135 190 L 140 190 L 140 195 L 135 195 Z M 132.5 200 L 142.5 200 C 143.878906 200 145 198.878906 145 197.5 L 145 187.5 C 145 186.121094 143.878906 185 142.5 185 L 132.5 185 C 131.121094 185 130 186.121094 130 187.5 L 130 197.5 C 130 198.878906 131.121094 200 132.5 200 " fill-opacity="1" fill-rule="nonzero"/><path fill="#000000" d="M 185 190 L 190 190 L 190 195 L 185 195 Z M 182.5 200 L 192.5 200 C 193.878906 200 195 198.878906 195 197.5 L 195 187.5 C 195 186.121094 193.878906 185 192.5 185 L 182.5 185 C 181.121094 185 180 186.121094 180 187.5 L 180 197.5 C 180 198.878906 181.121094 200 182.5 200 " fill-opacity="1" fill-rule="nonzero"/><path fill="#000000" d="M 235 190 L 240 190 L 240 195 L 235 195 Z M 232.5 200 L 242.5 200 C 243.878906 200 245 198.878906 245 197.5 L 245 187.5 C 245 186.121094 243.878906 185 242.5 185 L 232.5 185 C 231.121094 185 230 186.121094 230 187.5 L 230 197.5 C 230 198.878906 231.121094 200 232.5 200 " fill-opacity="1" fill-rule="nonzero"/><path fill="#000000" d="M 210 190 L 215 190 L 215 195 L 210 195 Z M 207.5 200 L 217.5 200 C 218.878906 200 220 198.878906 220 197.5 L 220 187.5 C 220 186.121094 218.878906 185 217.5 185 L 207.5 185 C 206.121094 185 205 186.121094 205 187.5 L 205 197.5 C 205 198.878906 206.121094 200 207.5 200 " fill-opacity="1" fill-rule="nonzero"/><g clip-path="url(#5af04ce632)"><path fill="#000000" d="M 257.5 145 L 117.5 145 L 117.5 130 C 117.5 128.621094 118.621094 127.5 120 127.5 L 127.5 127.5 L 127.5 130 C 127.5 134.136719 130.863281 137.5 135 137.5 C 139.136719 137.5 142.5 134.136719 142.5 130 L 142.5 127.5 L 162.5 127.5 L 162.5 130 C 162.5 134.136719 165.863281 137.5 170 137.5 C 174.136719 137.5 177.5 134.136719 177.5 130 L 177.5 127.5 L 197.5 127.5 L 197.5 130 C 197.5 134.136719 200.863281 137.5 205 137.5 C 209.136719 137.5 212.5 134.136719 212.5 130 L 212.5 127.5 L 232.5 127.5 L 232.5 130 C 232.5 134.136719 235.863281 137.5 240 137.5 C 244.136719 137.5 247.5 134.136719 247.5 130 L 247.5 127.5 L 255 127.5 C 256.378906 127.5 257.5 128.621094 257.5 130 Z M 257.5 255 C 257.5 256.378906 256.378906 257.5 255 257.5 L 120 257.5 C 118.621094 257.5 117.5 256.378906 117.5 255 L 117.5 150 L 257.5 150 Z M 132.5 120 C 132.5 118.621094 133.621094 117.5 135 117.5 C 136.378906 117.5 137.5 118.621094 137.5 120 L 137.5 130 C 137.5 131.378906 136.378906 132.5 135 132.5 C 133.621094 132.5 132.5 131.378906 132.5 130 Z M 167.5 120 C 167.5 118.621094 168.621094 117.5 170 117.5 C 171.378906 117.5 172.5 118.621094 172.5 120 L 172.5 130 C 172.5 131.378906 171.378906 132.5 170 132.5 C 168.621094 132.5 167.5 131.378906 167.5 130 Z M 202.5 120 C 202.5 118.621094 203.621094 117.5 205 117.5 C 206.378906 117.5 207.5 118.621094 207.5 120 L 207.5 130 C 207.5 131.378906 206.378906 132.5 205 132.5 C 203.621094 132.5 202.5 131.378906 202.5 130 Z M 237.5 120 C 237.5 118.621094 238.621094 117.5 240 117.5 C 241.378906 117.5 242.5 118.621094 242.5 120 L 242.5 130 C 242.5 131.378906 241.378906 132.5 240 132.5 C 238.621094 132.5 237.5 131.378906 237.5 130 Z M 255 122.5 L 247.5 122.5 L 247.5 120 C 247.5 115.863281 244.136719 112.5 240 112.5 C 235.863281 112.5 232.5 115.863281 232.5 120 L 232.5 122.5 L 212.5 122.5 L 212.5 120 C 212.5 115.863281 209.136719 112.5 205 112.5 C 200.863281 112.5 197.5 115.863281 197.5 120 L 197.5 122.5 L 177.5 122.5 L 177.5 120 C 177.5 115.863281 174.136719 112.5 170 112.5 C 165.863281 112.5 162.5 115.863281 162.5 120 L 162.5 122.5 L 142.5 122.5 L 142.5 120 C 142.5 115.863281 139.136719 112.5 135 112.5 C 130.863281 112.5 127.5 115.863281 127.5 120 L 127.5 122.5 L 120 122.5 C 115.863281 122.5 112.5 125.863281 112.5 130 L 112.5 255 C 112.5 259.136719 115.863281 262.5 120 262.5 L 255 262.5 C 259.136719 262.5 262.5 259.136719 262.5 255 L 262.5 130 C 262.5 125.863281 259.136719 122.5 255 122.5 " fill-opacity="1" fill-rule="nonzero"/></g><path fill="#000000" d="M 230.730469 244.265625 C 231.21875 244.753906 231.859375 245 232.5 245 C 233.140625 245 233.777344 244.753906 234.265625 244.265625 L 237.5 241.035156 L 240.730469 244.265625 C 241.21875 244.753906 241.859375 245 242.5 245 C 243.140625 245 243.777344 244.753906 244.265625 244.265625 C 245.242188 243.289062 245.242188 241.707031 244.265625 240.730469 L 241.035156 237.5 L 244.265625 234.265625 C 245.242188 233.289062 245.242188 231.707031 244.265625 230.730469 C 243.289062 229.753906 241.707031 229.753906 240.730469 230.730469 L 237.5 233.964844 L 234.265625 230.730469 C 233.289062 229.753906 231.707031 229.753906 230.730469 230.730469 C 229.753906 231.707031 229.753906 233.289062 230.730469 234.265625 L 233.964844 237.5 L 230.730469 240.730469 C 229.753906 241.707031 229.753906 243.289062 230.730469 244.265625 " fill-opacity="1" fill-rule="nonzero"/><path fill="#000000" d="M 205.730469 244.265625 C 206.21875 244.753906 206.859375 245 207.5 245 C 208.140625 245 208.777344 244.753906 209.265625 244.265625 L 212.5 241.035156 L 215.730469 244.265625 C 216.21875 244.753906 216.859375 245 217.5 245 C 218.140625 245 218.777344 244.753906 219.265625 244.265625 C 220.242188 243.289062 220.242188 241.707031 219.265625 240.730469 L 216.035156 237.5 L 219.265625 234.265625 C 220.242188 233.289062 220.242188 231.707031 219.265625 230.730469 C 218.289062 229.753906 216.707031 229.753906 215.730469 230.730469 L 212.5 233.964844 L 209.265625 230.730469 C 208.289062 229.753906 206.707031 229.753906 205.730469 230.730469 C 204.753906 231.707031 204.753906 233.289062 205.730469 234.265625 L 208.964844 237.5 L 205.730469 240.730469 C 204.753906 241.707031 204.753906 243.289062 205.730469 244.265625 " fill-opacity="1" fill-rule="nonzero"/><path fill="#000000" d="M 180.730469 244.265625 C 181.21875 244.753906 181.859375 245 182.5 245 C 183.140625 245 183.777344 244.753906 184.265625 244.265625 L 187.5 241.035156 L 190.730469 244.265625 C 191.21875 244.753906 191.859375 245 192.5 245 C 193.140625 245 193.777344 244.753906 194.265625 244.265625 C 195.242188 243.289062 195.242188 241.707031 194.265625 240.730469 L 191.035156 237.5 L 194.265625 234.265625 C 195.242188 233.289062 195.242188 231.707031 194.265625 230.730469 C 193.289062 229.753906 191.707031 229.753906 190.730469 230.730469 L 187.5 233.964844 L 184.265625 230.730469 C 183.289062 229.753906 181.707031 229.753906 180.730469 230.730469 C 179.753906 231.707031 179.753906 233.289062 180.730469 234.265625 L 183.964844 237.5 L 180.730469 240.730469 C 179.753906 241.707031 179.753906 243.289062 180.730469 244.265625 " fill-opacity="1" fill-rule="nonzero"/><path fill="#000000" d="M 155.730469 244.265625 C 156.21875 244.753906 156.859375 245 157.5 245 C 158.140625 245 158.777344 244.753906 159.265625 244.265625 L 162.5 241.035156 L 165.730469 244.265625 C 166.21875 244.753906 166.859375 245 167.5 245 C 168.140625 245 168.777344 244.753906 169.265625 244.265625 C 170.242188 243.289062 170.242188 241.707031 169.265625 240.730469 L 166.035156 237.5 L 169.265625 234.265625 C 170.242188 233.289062 170.242188 231.707031 169.265625 230.730469 C 168.289062 229.753906 166.707031 229.753906 165.730469 230.730469 L 162.5 233.964844 L 159.265625 230.730469 C 158.289062 229.753906 156.707031 229.753906 155.730469 230.730469 C 154.753906 231.707031 154.753906 233.289062 155.730469 234.265625 L 158.964844 237.5 L 155.730469 240.730469 C 154.753906 241.707031 154.753906 243.289062 155.730469 244.265625 " fill-opacity="1" fill-rule="nonzero"/><path fill="#000000" d="M 130.730469 244.265625 C 131.21875 244.753906 131.859375 245 132.5 245 C 133.140625 245 133.777344 244.753906 134.265625 244.265625 L 137.5 241.035156 L 140.730469 244.265625 C 141.21875 244.753906 141.859375 245 142.5 245 C 143.140625 245 143.777344 244.753906 144.265625 244.265625 C 145.242188 243.289062 145.242188 241.707031 144.265625 240.730469 L 141.035156 237.5 L 144.265625 234.265625 C 145.242188 233.289062 145.242188 231.707031 144.265625 230.730469 C 143.289062 229.753906 141.707031 229.753906 140.730469 230.730469 L 137.5 233.964844 L 134.265625 230.730469 C 133.289062 229.753906 131.707031 229.753906 130.730469 230.730469 C 129.753906 231.707031 129.753906 233.289062 130.730469 234.265625 L 133.964844 237.5 L 130.730469 240.730469 C 129.753906 241.707031 129.753906 243.289062 130.730469 244.265625 " fill-opacity="1" fill-rule="nonzero"/><path fill="#000000" d="M 230.730469 221.765625 C 231.21875 222.253906 231.859375 222.5 232.5 222.5 C 233.140625 222.5 233.777344 222.253906 234.265625 221.765625 L 237.5 218.535156 L 240.730469 221.765625 C 241.21875 222.253906 241.859375 222.5 242.5 222.5 C 243.140625 222.5 243.777344 222.253906 244.265625 221.765625 C 245.242188 220.789062 245.242188 219.207031 244.265625 218.230469 L 241.035156 215 L 244.265625 211.765625 C 245.242188 210.789062 245.242188 209.207031 244.265625 208.230469 C 243.289062 207.253906 241.707031 207.253906 240.730469 208.230469 L 237.5 211.464844 L 234.265625 208.230469 C 233.289062 207.253906 231.707031 207.253906 230.730469 208.230469 C 229.753906 209.207031 229.753906 210.789062 230.730469 211.765625 L 233.964844 215 L 230.730469 218.230469 C 229.753906 219.207031 229.753906 220.789062 230.730469 221.765625 " fill-opacity="1" fill-rule="nonzero"/><path fill="#000000" d="M 205.730469 221.765625 C 206.21875 222.253906 206.859375 222.5 207.5 222.5 C 208.140625 222.5 208.777344 222.253906 209.265625 221.765625 L 212.5 218.535156 L 215.730469 221.765625 C 216.21875 222.253906 216.859375 222.5 217.5 222.5 C 218.140625 222.5 218.777344 222.253906 219.265625 221.765625 C 220.242188 220.789062 220.242188 219.207031 219.265625 218.230469 L 216.035156 215 L 219.265625 211.765625 C 220.242188 210.789062 220.242188 209.207031 219.265625 208.230469 C 218.289062 207.253906 216.707031 207.253906 215.730469 208.230469 L 212.5 211.464844 L 209.265625 208.230469 C 208.289062 207.253906 206.707031 207.253906 205.730469 208.230469 C 204.753906 209.207031 204.753906 210.789062 205.730469 211.765625 L 208.964844 215 L 205.730469 218.230469 C 204.753906 219.207031 204.753906 220.789062 205.730469 221.765625 " fill-opacity="1" fill-rule="nonzero"/><path fill="#000000" d="M 180.730469 221.765625 C 181.21875 222.253906 181.859375 222.5 182.5 222.5 C 183.140625 222.5 183.777344 222.253906 184.265625 221.765625 L 187.5 218.535156 L 190.730469 221.765625 C 191.21875 222.253906 191.859375 222.5 192.5 222.5 C 193.140625 222.5 193.777344 222.253906 194.265625 221.765625 C 195.242188 220.789062 195.242188 219.207031 194.265625 218.230469 L 191.035156 215 L 194.265625 211.765625 C 195.242188 210.789062 195.242188 209.207031 194.265625 208.230469 C 193.289062 207.253906 191.707031 207.253906 190.730469 208.230469 L 187.5 211.464844 L 184.265625 208.230469 C 183.289062 207.253906 181.707031 207.253906 180.730469 208.230469 C 179.753906 209.207031 179.753906 210.789062 180.730469 211.765625 L 183.964844 215 L 180.730469 218.230469 C 179.753906 219.207031 179.753906 220.789062 180.730469 221.765625 " fill-opacity="1" fill-rule="nonzero"/><path fill="#000000" d="M 155.730469 221.765625 C 156.21875 222.253906 156.859375 222.5 157.5 222.5 C 158.140625 222.5 158.777344 222.253906 159.265625 221.765625 L 162.5 218.535156 L 165.730469 221.765625 C 166.21875 222.253906 166.859375 222.5 167.5 222.5 C 168.140625 222.5 168.777344 222.253906 169.265625 221.765625 C 170.242188 220.789062 170.242188 219.207031 169.265625 218.230469 L 166.035156 215 L 169.265625 211.765625 C 170.242188 210.789062 170.242188 209.207031 169.265625 208.230469 C 168.289062 207.253906 166.707031 207.253906 165.730469 208.230469 L 162.5 211.464844 L 159.265625 208.230469 C 158.289062 207.253906 156.707031 207.253906 155.730469 208.230469 C 154.753906 209.207031 154.753906 210.789062 155.730469 211.765625 L 158.964844 215 L 155.730469 218.230469 C 154.753906 219.207031 154.753906 220.789062 155.730469 221.765625 " fill-opacity="1" fill-rule="nonzero"/><path fill="#000000" d="M 130.730469 221.765625 C 131.21875 222.253906 131.859375 222.5 132.5 222.5 C 133.140625 222.5 133.777344 222.253906 134.265625 221.765625 L 137.5 218.535156 L 140.730469 221.765625 C 141.21875 222.253906 141.859375 222.5 142.5 222.5 C 143.140625 222.5 143.777344 222.253906 144.265625 221.765625 C 145.242188 220.789062 145.242188 219.207031 144.265625 218.230469 L 141.035156 215 L 144.265625 211.765625 C 145.242188 210.789062 145.242188 209.207031 144.265625 208.230469 C 143.289062 207.253906 141.707031 207.253906 140.730469 208.230469 L 137.5 211.464844 L 134.265625 208.230469 C 133.289062 207.253906 131.707031 207.253906 130.730469 208.230469 C 129.753906 209.207031 129.753906 210.789062 130.730469 211.765625 L 133.964844 215 L 130.730469 218.230469 C 129.753906 219.207031 129.753906 220.789062 130.730469 221.765625 " fill-opacity="1" fill-rule="nonzero"/></svg>